# xmcd
#
# Track frame offsets:
# 150
# 12627
# 32061
# 44887
# 69049
# 84258
# 97581
# 113580
# 133456
# 150198
#
# Disc length: 2204 seconds
#
#
# Revision: 0
# Processed by: cddbd v1.5.2PL0 Copyright (c) Steve Scherf et al.
# Submitted via: FreeRIP 2.943 
#
DISCID=72089a0a
DTITLE=Cuarteto Decision - Majestad
DYEAR=2006
DGENRE=Religioso
TTITLE0=Majestad
TTITLE1=Vuelve a Dios
TTITLE2=La Cruz de Amor
TTITLE3=Cristo es todo para mi
TTITLE4=Cristo es Amor
TTITLE5=Ven a Adorar
TTITLE6=Gracias Senor
TTITLE7=El Respondera
TTITLE8=Confia en Dios
TTITLE9=Padre Nuestro
EXTD=
EXTT0=
EXTT1=
EXTT2=
EXTT3=
EXTT4=
EXTT5=
EXTT6=
EXTT7=
EXTT8=
EXTT9=
PLAYORDER=
